<svg width="20" height="20" viewBox="0 0 20 20" fill="none" xmlns="http://www.w3.org/2000/svg">
<path d="M9.14125 1.57749C9.37334 1.35807 9.68061 1.23581 10 1.23581C10.3194 1.23581 10.6267 1.35807 10.8588 1.57749L16.9137 7.30124C17.2888 7.65499 17.5 8.14874 17.5 8.66374V15.6262C17.5 16.1235 17.3025 16.6004 16.9508 16.9521C16.5992 17.3037 16.1223 17.5012 15.625 17.5012H13.125C12.8787 17.5012 12.6347 17.4527 12.4072 17.3584C12.1796 17.2641 11.9729 17.1259 11.7987 16.9516C11.6246 16.7774 11.4865 16.5705 11.3924 16.3429C11.2982 16.1153 11.2498 15.8713 11.25 15.625V12.5C11.25 12.3342 11.1842 12.1753 11.0669 12.058C10.9497 11.9408 10.7908 11.875 10.625 11.875H9.375C9.20924 11.875 9.05027 11.9408 8.93306 12.058C8.81585 12.1753 8.75 12.3342 8.75 12.5V15.625C8.75 16.1223 8.55246 16.5992 8.20083 16.9508C7.84919 17.3024 7.37228 17.5 6.875 17.5H4.375C3.87772 17.5 3.40081 17.3024 3.04917 16.9508C2.69754 16.5992 2.5 16.1223 2.5 15.625V8.66249C2.5 8.14749 2.7125 7.65374 3.0875 7.29999L9.14125 1.57499V1.57749ZM10 2.48499L3.945 8.20999C3.88353 8.26826 3.83455 8.33842 3.80103 8.41621C3.76751 8.494 3.75014 8.57779 3.75 8.66249V15.625C3.75 15.7907 3.81585 15.9497 3.93306 16.0669C4.05027 16.1841 4.20924 16.25 4.375 16.25H6.875C7.04076 16.25 7.19973 16.1841 7.31694 16.0669C7.43415 15.9497 7.5 15.7907 7.5 15.625V12.5C7.5 12.0027 7.69754 11.5258 8.04917 11.1742C8.40081 10.8225 8.87772 10.625 9.375 10.625H10.625C11.1223 10.625 11.5992 10.8225 11.9508 11.1742C12.3025 11.5258 12.5 12.0027 12.5 12.5V15.625C12.5 15.7907 12.5658 15.9497 12.6831 16.0669C12.8003 16.1841 12.9592 16.25 13.125 16.25H15.625C15.7908 16.25 15.9497 16.1841 16.0669 16.0669C16.1842 15.9497 16.25 15.7907 16.25 15.625V8.66249C16.25 8.57757 16.2327 8.49355 16.1992 8.41553C16.1657 8.33752 16.1166 8.26716 16.055 8.20874L10 2.48499Z" fill="#717171"/>
</svg>
