<svg width="20" height="20" viewBox="0 0 20 20" fill="none" xmlns="http://www.w3.org/2000/svg">
<path d="M10 10C10.4602 10 10.8333 9.62691 10.8333 9.16668C10.8333 8.70644 10.4602 8.33334 10 8.33334C9.53976 8.33334 9.16667 8.70644 9.16667 9.16668C9.16667 9.62691 9.53976 10 10 10Z" fill="#717171"/>
<path d="M13.3333 10C13.7936 10 14.1667 9.62691 14.1667 9.16668C14.1667 8.70644 13.7936 8.33334 13.3333 8.33334C12.8731 8.33334 12.5 8.70644 12.5 9.16668C12.5 9.62691 12.8731 10 13.3333 10Z" fill="#717171"/>
<path d="M6.66667 10C7.12691 10 7.5 9.62691 7.5 9.16668C7.5 8.70644 7.12691 8.33334 6.66667 8.33334C6.20643 8.33334 5.83334 8.70644 5.83334 9.16668C5.83334 9.62691 6.20643 10 6.66667 10Z" fill="#717171"/>
<path d="M15.8333 2.5H4.16667C3.50363 2.5 2.86774 2.76339 2.3989 3.23223C1.93006 3.70107 1.66667 4.33696 1.66667 5V17.5C1.66692 17.6477 1.70641 17.7926 1.78109 17.92C1.85576 18.0474 1.96295 18.1526 2.09167 18.225C2.21621 18.2956 2.35684 18.3329 2.5 18.3333C2.64957 18.3333 2.79637 18.293 2.925 18.2167L6.66667 15.95C6.80497 15.8677 6.96416 15.8271 7.125 15.8333H15.8333C16.4964 15.8333 17.1323 15.5699 17.6011 15.1011C18.0699 14.6323 18.3333 13.9964 18.3333 13.3333V5C18.3333 4.33696 18.0699 3.70107 17.6011 3.23223C17.1323 2.76339 16.4964 2.5 15.8333 2.5ZM16.6667 13.3333C16.6667 13.5543 16.5789 13.7663 16.4226 13.9226C16.2663 14.0789 16.0543 14.1667 15.8333 14.1667H7.125C6.66985 14.1663 6.22324 14.2902 5.83333 14.525L3.33333 16.025V5C3.33333 4.77899 3.42113 4.56702 3.57741 4.41074C3.73369 4.25446 3.94565 4.16667 4.16667 4.16667H15.8333C16.0543 4.16667 16.2663 4.25446 16.4226 4.41074C16.5789 4.56702 16.6667 4.77899 16.6667 5V13.3333Z" fill="#717171"/>
</svg>
