<svg width="20" height="20" viewBox="0 0 20 20" fill="none" xmlns="http://www.w3.org/2000/svg">
<path d="M7.98155 1.6875C7.73324 1.6875 7.51097 1.60417 7.31474 1.4375C7.1185 1.27083 7.02038 1.07292 7.02038 0.84375C7.02038 0.614583 7.1185 0.416667 7.31474 0.25C7.51097 0.0833333 7.73324 0 7.98155 0C8.23786 0 8.47014 0.0833333 8.67839 0.25C8.88665 0.416667 8.99077 0.614583 8.99077 0.84375C8.99077 1.07292 8.88665 1.27083 8.67839 1.4375C8.47014 1.60417 8.23786 1.6875 7.98155 1.6875ZM11.5138 1.6875C11.2575 1.6875 11.0293 1.60417 10.829 1.4375C10.6288 1.27083 10.5286 1.07292 10.5286 0.84375C10.5286 0.614583 10.6288 0.416667 10.829 0.25C11.0293 0.0833333 11.2575 0 11.5138 0C11.7702 0 11.9984 0.0833333 12.1987 0.25C12.3989 0.416667 12.499 0.614583 12.499 0.84375C12.499 1.07292 12.3989 1.27083 12.1987 1.4375C11.9984 1.60417 11.7702 1.6875 11.5138 1.6875ZM19.047 18.5625H18.218V15.1667C18.218 15.4653 18.0578 15.7205 17.7374 15.9323C17.417 16.1441 17.0245 16.25 16.56 16.25C16.1034 16.25 15.715 16.1441 15.3946 15.9323C15.0742 15.7205 14.914 15.4653 14.914 15.1667C14.914 15.4653 14.7518 15.7205 14.4274 15.9323C14.103 16.1441 13.7125 16.25 13.256 16.25C12.7994 16.25 12.4089 16.1441 12.0845 15.9323C11.7601 15.7205 11.5979 15.4653 11.5979 15.1667C11.5979 15.4653 11.4357 15.7205 11.1114 15.9323C10.787 16.1441 10.3965 16.25 9.93993 16.25C9.48337 16.25 9.0929 16.1441 8.7685 15.9323C8.44411 15.7205 8.28191 15.4653 8.28191 15.1667C8.28191 15.4653 8.11971 15.7205 7.79532 15.9323C7.47093 16.1441 7.08045 16.25 6.6239 16.25C6.16734 16.25 5.77887 16.1441 5.45848 15.9323C5.13809 15.7205 4.97789 15.4653 4.97789 15.1667C4.97789 15.4653 4.8157 15.7205 4.4913 15.9323C4.16691 16.1441 3.77643 16.25 3.31988 16.25C2.86332 16.25 2.47285 16.1441 2.14845 15.9323C1.82406 15.7205 1.66186 15.4653 1.66186 15.1667V18.5625H0.832853C0.600571 18.5625 0.404332 18.6319 0.244137 18.7708C0.0839426 18.9097 0.00384521 19.0799 0.00384521 19.2813C0.00384521 19.4826 0.0839426 19.6528 0.244137 19.7917C0.404332 19.9306 0.600571 20 0.832853 20H19.047C19.2793 20 19.4755 19.9306 19.6357 19.7917C19.7959 19.6528 19.876 19.4826 19.876 19.2813C19.876 19.0799 19.7959 18.9097 19.6357 18.7708C19.4755 18.6319 19.2793 18.5625 19.047 18.5625ZM14.914 13.8229C14.914 14.1215 15.0742 14.3767 15.3946 14.5885C15.715 14.8003 16.1034 14.9063 16.56 14.9063C17.0245 14.9063 17.417 14.8021 17.7374 14.5938C18.0578 14.3854 18.218 14.1285 18.218 13.8229V13.1875C18.218 12.8889 18.1059 12.6337 17.8816 12.4219C17.6573 12.2101 17.381 12.1042 17.0526 12.1042H2.85131C2.52291 12.1042 2.24257 12.2101 2.01029 12.4219C1.778 12.6337 1.66186 12.8889 1.66186 13.1875V13.8229C1.66186 14.1215 1.82406 14.3767 2.14845 14.5885C2.47285 14.8003 2.86332 14.9063 3.31988 14.9063C3.77643 14.9063 4.16691 14.8003 4.4913 14.5885C4.8157 14.3767 4.97789 14.1215 4.97789 13.8229C4.97789 14.1215 5.13809 14.3767 5.45848 14.5885C5.77887 14.8003 6.16734 14.9063 6.6239 14.9063C7.08045 14.9063 7.47093 14.8003 7.79532 14.5885C8.11971 14.3767 8.28191 14.1215 8.28191 13.8229C8.28191 14.1215 8.44411 14.3767 8.7685 14.5885C9.0929 14.8003 9.48337 14.9063 9.93993 14.9063C10.3965 14.9063 10.787 14.8003 11.1114 14.5885C11.4357 14.3767 11.5979 14.1215 11.5979 13.8229C11.5979 14.1215 11.7601 14.3767 12.0845 14.5885C12.4089 14.8003 12.7994 14.9063 13.256 14.9063C13.7125 14.9063 14.103 14.8003 14.4274 14.5885C14.7518 14.3767 14.914 14.1215 14.914 13.8229ZM14.914 11.3854V7.88542C14.914 8.18403 14.7518 8.44097 14.4274 8.65625C14.103 8.87153 13.7125 8.97917 13.256 8.97917C12.7994 8.97917 12.4089 8.87153 12.0845 8.65625C11.7601 8.44097 11.5979 8.18403 11.5979 7.88542C11.5979 8.18403 11.4357 8.44097 11.1114 8.65625C10.787 8.87153 10.3965 8.97917 9.93993 8.97917C9.48337 8.97917 9.0929 8.87153 8.7685 8.65625C8.44411 8.44097 8.28191 8.18403 8.28191 7.88542C8.28191 8.18403 8.11971 8.44097 7.79532 8.65625C7.47093 8.87153 7.08045 8.97917 6.6239 8.97917C6.16734 8.97917 5.77887 8.87326 5.45848 8.66146C5.13809 8.44965 4.97789 8.19097 4.97789 7.88542V11.3854H14.914ZM10.0961 4.92708H12.9075L11.9704 3.23958V2.63542C11.9704 2.51736 11.9223 2.45833 11.8262 2.45833H11.1654C11.0773 2.45833 11.0333 2.51736 11.0333 2.63542V3.23958L10.0961 4.92708ZM13.5804 4.92708H13.9889C14.2612 4.92708 14.4835 5.02951 14.6557 5.23438C14.8279 5.43924 14.914 5.69444 14.914 6V6.54167C14.914 6.84028 14.7518 7.09722 14.4274 7.3125C14.103 7.52778 13.7125 7.63542 13.256 7.63542C12.7994 7.63542 12.4089 7.52778 12.0845 7.3125C11.7601 7.09722 11.5979 6.84028 11.5979 6.54167C11.5979 6.84028 11.4357 7.09722 11.1114 7.3125C10.787 7.52778 10.3965 7.63542 9.93993 7.63542C9.48337 7.63542 9.0929 7.52778 8.7685 7.3125C8.44411 7.09722 8.28191 6.84028 8.28191 6.54167C8.28191 6.84028 8.11971 7.09722 7.79532 7.3125C7.47093 7.52778 7.08045 7.63542 6.6239 7.63542C6.16734 7.63542 5.77887 7.52951 5.45848 7.31771C5.13809 7.1059 4.97789 6.84722 4.97789 6.54167V6C4.97789 5.70139 5.07401 5.44792 5.26624 5.23958C5.45848 5.03125 5.69076 4.92708 5.96309 4.92708H7.18858V3.59375H6.64792V2.40625C6.64792 2.32986 6.70199 2.24306 6.81012 2.14583C6.91825 2.04861 7.01237 2 7.09247 2H8.90667C8.98677 2 9.07888 2.04861 9.18301 2.14583C9.28713 2.24306 9.3392 2.32986 9.3392 2.40625V3.59375H8.81055V4.92708H9.4233C9.56748 4.60764 9.89988 4.00347 10.4205 3.11458V2.39583C10.4205 2.31944 10.4786 2.23438 10.5947 2.14063C10.7109 2.04688 10.817 2 10.9131 2H12.0905C12.1867 2 12.2928 2.04688 12.4089 2.14063C12.5251 2.23438 12.5831 2.31944 12.5831 2.39583V3.11458C13.1038 4.00347 13.4362 4.60764 13.5804 4.92708Z" fill="#FCDD00"/>
</svg>
