<svg width="20" height="20" viewBox="0 0 20 20" fill="none" xmlns="http://www.w3.org/2000/svg">
<path d="M8.49297 4.90103C8.13497 4.97103 7.74297 5.20303 7.43497 5.74703C7.40254 5.80415 7.35917 5.85433 7.30734 5.89469C7.25551 5.93506 7.19624 5.96482 7.13291 5.98228C7.06958 5.99973 7.00343 6.00455 6.93824 5.99644C6.87305 5.98833 6.8101 5.96747 6.75297 5.93503C6.69585 5.90259 6.64567 5.85922 6.60531 5.80739C6.56495 5.75557 6.53519 5.69629 6.51773 5.63297C6.50027 5.56964 6.49546 5.50349 6.50356 5.4383C6.51167 5.37311 6.53254 5.31015 6.56497 5.25303C7.00597 4.47703 7.63297 4.05003 8.30097 3.92003C8.92253 3.80264 9.56536 3.93214 10.093 4.28103C10.577 4.60103 10.968 5.12403 10.98 5.75103C10.993 6.40603 10.595 6.99703 9.86097 7.43103C9.36297 7.72503 9.16897 7.92503 9.08597 8.05803C9.01597 8.17003 8.99997 8.27203 8.99997 8.50003C8.99997 8.63264 8.9473 8.75981 8.85353 8.85358C8.75976 8.94735 8.63258 9.00003 8.49997 9.00003C8.36737 9.00003 8.24019 8.94735 8.14642 8.85358C8.05265 8.75981 7.99997 8.63264 7.99997 8.50003C7.99997 8.22803 8.01398 7.89003 8.23698 7.53003C8.44698 7.19303 8.80597 6.89303 9.35197 6.57003C9.88697 6.25303 9.98397 5.95203 9.98097 5.77203C9.97597 5.56503 9.83897 5.31203 9.54097 5.11503C9.23244 4.91091 8.85684 4.83421 8.49297 4.90103Z" fill="#FCDD00"/>
<path d="M8.74998 11.5C8.94889 11.5 9.13965 11.421 9.28031 11.2803C9.42096 11.1397 9.49998 10.9489 9.49998 10.75C9.49998 10.5511 9.42096 10.3603 9.28031 10.2197C9.13965 10.079 8.94889 10 8.74998 10C8.55106 10 8.3603 10.079 8.21965 10.2197C8.079 10.3603 7.99998 10.5511 7.99998 10.75C7.99998 10.9489 8.079 11.1397 8.21965 11.2803C8.3603 11.421 8.55106 11.5 8.74998 11.5Z" fill="#FCDD00"/>
<path d="M8.50001 1.00002C7.3665 0.999751 6.25262 1.29591 5.26893 1.8591C4.28523 2.4223 3.46591 3.23294 2.89228 4.21059C2.31865 5.18824 2.01065 6.2989 1.99885 7.43235C1.98705 8.5658 2.27186 9.68264 2.82501 10.672L2.03001 12.754C1.96384 12.9271 1.94706 13.1151 1.98153 13.2972C2.016 13.4792 2.10038 13.6481 2.22524 13.785C2.35011 13.9219 2.51056 14.0214 2.68868 14.0725C2.8668 14.1235 3.0556 14.124 3.23401 14.074L5.72101 13.377C6.602 13.7933 7.5653 14.0061 8.53966 13.9999C9.51402 13.9936 10.4745 13.7684 11.3501 13.3408C12.2256 12.9133 12.9939 12.2943 13.5979 11.5298C14.202 10.7653 14.6265 9.87471 14.84 8.924C15.0534 7.97329 15.0504 6.98676 14.8312 6.03737C14.6119 5.08798 14.182 4.20003 13.5733 3.4392C12.9645 2.67838 12.1925 2.06414 11.3144 1.64193C10.4362 1.21972 9.47439 1.00034 8.50001 1.00002ZM3.00001 7.50002C3.00046 6.30145 3.39242 5.13583 4.11626 4.18051C4.84009 3.22519 5.85618 2.53248 7.00993 2.20775C8.16367 1.88303 9.39191 1.94408 10.5078 2.38162C11.6236 2.81915 12.566 3.60922 13.1915 4.6316C13.8171 5.65399 14.0915 6.85273 13.9731 8.04544C13.8547 9.23815 13.3499 10.3595 12.5356 11.239C11.7212 12.1184 10.6419 12.7077 9.46176 12.9173C8.28165 13.1269 7.06539 12.9453 5.99801 12.4L5.82401 12.31L2.96401 13.111L3.93301 10.575L3.80501 10.365C3.27716 9.50272 2.99852 8.51104 3.00001 7.50002Z" fill="#FCDD00"/>
<path d="M11.4631 17C10.5274 17.0011 9.60257 16.7996 8.7521 16.4095C7.90163 16.0194 7.14565 15.4499 6.53605 14.74C7.09905 14.893 7.68905 14.981 8.29605 14.997C9.22236 15.6513 10.329 16.0018 11.4631 16C12.3651 16 13.2151 15.783 13.9651 15.4L14.1391 15.31L16.9991 16.111L16.0301 13.575L16.1581 13.365C16.6681 12.531 16.9631 11.551 16.9631 10.5C16.9646 9.38958 16.6284 8.30492 15.9991 7.39003C15.9909 6.79513 15.912 6.20331 15.7641 5.62703C16.4559 6.23627 17.01 6.98605 17.3892 7.82634C17.7684 8.66664 17.964 9.57814 17.9631 10.5C17.9631 11.651 17.6631 12.733 17.1371 13.672L17.9331 15.754C17.9991 15.927 18.0159 16.1149 17.9814 16.2969C17.947 16.4788 17.8627 16.6476 17.738 16.7844C17.6133 16.9213 17.453 17.0208 17.275 17.072C17.0971 17.1231 16.9084 17.1238 16.7301 17.074L14.2421 16.377C13.3991 16.777 12.4561 17 11.4621 17H11.4631Z" fill="#FCDD00"/>
</svg>
