<svg width="20" height="20" viewBox="0 0 20 20" fill="none" xmlns="http://www.w3.org/2000/svg">
<path d="M15.8333 2.5H4.16667C3.2475 2.5 2.5 3.2475 2.5 4.16667V15.8333C2.5 16.7525 3.2475 17.5 4.16667 17.5H15.8333C16.7525 17.5 17.5 16.7525 17.5 15.8333V4.16667C17.5 3.2475 16.7525 2.5 15.8333 2.5ZM4.16667 15.8333V4.16667H15.8333L15.835 15.8333H4.16667Z" fill="#FCDD00"/>
<path d="M6.66666 7.91667C7.35702 7.91667 7.91666 7.35703 7.91666 6.66667C7.91666 5.97632 7.35702 5.41667 6.66666 5.41667C5.97631 5.41667 5.41666 5.97632 5.41666 6.66667C5.41666 7.35703 5.97631 7.91667 6.66666 7.91667Z" fill="#FCDD00"/>
<path d="M6.66666 11.25C7.35702 11.25 7.91666 10.6904 7.91666 10C7.91666 9.30964 7.35702 8.75 6.66666 8.75C5.97631 8.75 5.41666 9.30964 5.41666 10C5.41666 10.6904 5.97631 11.25 6.66666 11.25Z" fill="#FCDD00"/>
<path d="M13.3333 11.25C14.0237 11.25 14.5833 10.6904 14.5833 10C14.5833 9.30964 14.0237 8.75 13.3333 8.75C12.643 8.75 12.0833 9.30964 12.0833 10C12.0833 10.6904 12.643 11.25 13.3333 11.25Z" fill="#FCDD00"/>
<path d="M13.3333 14.5833C14.0237 14.5833 14.5833 14.0237 14.5833 13.3333C14.5833 12.643 14.0237 12.0833 13.3333 12.0833C12.643 12.0833 12.0833 12.643 12.0833 13.3333C12.0833 14.0237 12.643 14.5833 13.3333 14.5833Z" fill="#FCDD00"/>
<path d="M6.66666 14.5833C7.35702 14.5833 7.91666 14.0237 7.91666 13.3333C7.91666 12.643 7.35702 12.0833 6.66666 12.0833C5.97631 12.0833 5.41666 12.643 5.41666 13.3333C5.41666 14.0237 5.97631 14.5833 6.66666 14.5833Z" fill="#FCDD00"/>
<path d="M13.3333 7.91667C14.0237 7.91667 14.5833 7.35703 14.5833 6.66667C14.5833 5.97632 14.0237 5.41667 13.3333 5.41667C12.643 5.41667 12.0833 5.97632 12.0833 6.66667C12.0833 7.35703 12.643 7.91667 13.3333 7.91667Z" fill="#FCDD00"/>
</svg>
