<svg width="20" height="20" viewBox="0 0 20 20" fill="none" xmlns="http://www.w3.org/2000/svg">
<path d="M18.1201 16.5614C16.9539 14.5528 15.0862 13.0463 12.8763 12.3316C13.935 11.7016 14.7576 10.7416 15.2178 9.59882C15.678 8.45607 15.7503 7.19385 15.4237 6.00602C15.097 4.8182 14.3894 3.77045 13.4096 3.02372C12.4298 2.27698 11.232 1.87256 10 1.87256C8.76811 1.87256 7.57025 2.27698 6.59044 3.02372C5.61062 3.77045 4.90305 4.8182 4.57639 6.00602C4.24973 7.19385 4.32205 8.45607 4.78224 9.59882C5.24244 10.7416 6.06506 11.7016 7.12375 12.3316C4.91388 13.0463 3.04625 14.5527 1.88 16.5612C1.83889 16.6323 1.81218 16.7107 1.8014 16.7921C1.79061 16.8735 1.79595 16.9562 1.81713 17.0355C1.8383 17.1148 1.87488 17.1891 1.92479 17.2543C1.9747 17.3195 2.03696 17.3742 2.108 17.4153C2.17905 17.4564 2.2575 17.4831 2.33887 17.4939C2.42024 17.5047 2.50293 17.4993 2.58224 17.4781C2.66154 17.457 2.7359 17.4204 2.80106 17.3705C2.86623 17.3206 2.92092 17.2583 2.96203 17.1873C3.67554 15.9521 4.70154 14.9265 5.93695 14.2134C7.17237 13.5003 8.57369 13.125 10.0001 13.125C11.4266 13.125 12.8279 13.5004 14.0633 14.2135C15.2987 14.9266 16.3246 15.9522 17.0381 17.1874C17.0792 17.2585 17.1339 17.3207 17.1991 17.3706C17.2642 17.4205 17.3386 17.4571 17.4179 17.4783C17.4972 17.4994 17.5799 17.5048 17.6613 17.494C17.7426 17.4832 17.8211 17.4565 17.8921 17.4154C17.9631 17.3743 18.0254 17.3196 18.0753 17.2544C18.1252 17.1893 18.1618 17.1149 18.183 17.0356C18.2041 16.9563 18.2095 16.8736 18.1987 16.7923C18.1879 16.7109 18.1612 16.6324 18.1201 16.5614ZM5.625 7.5C5.625 6.63471 5.88159 5.78884 6.36232 5.06938C6.84305 4.34991 7.52633 3.78916 8.32576 3.45803C9.12518 3.12689 10.0049 3.04025 10.8535 3.20906C11.7022 3.37787 12.4817 3.79455 13.0936 4.40641C13.7054 5.01826 14.1221 5.79781 14.2909 6.64648C14.4597 7.49515 14.3731 8.37481 14.042 9.17424C13.7108 9.97367 13.1501 10.6569 12.4306 11.1377C11.7112 11.6184 10.8653 11.875 10 11.875C8.84008 11.8737 7.72805 11.4123 6.90787 10.5921C6.08768 9.77194 5.62632 8.65992 5.625 7.5Z" fill="#717171"/>
</svg>
