<svg width="20" height="20" viewBox="0 0 20 20" fill="none" xmlns="http://www.w3.org/2000/svg">
<path d="M16.875 5H14.875C15 4.5 15 4 15 3.5C14.875 3.125 14.75 2.75 14.5 2.375C14.25 2 14 1.75 13.625 1.625C13.25 1.5 12.875 1.25 12.5 1.25C12.125 1.25 11.75 1.25 11.375 1.5C10.5 1.75 9.875 2.375 9.375 3.125C8.875 2.375 8.25 1.75 7.375 1.5C7 1.375 6.625 1.25 6.25 1.25C5.875 1.25 5.5 1.375 5.125 1.625C4.75 1.75 4.5 2 4.25 2.375C4 2.625 3.875 3.125 3.75 3.5C3.75 4 3.75 4.5 3.875 5H1.875L1.25 5.625V16.875L1.875 17.5H16.875L17.5 16.875V5.625L16.875 5ZM8.75 16.25H2.5V6.25H8.75V16.25ZM8.75 5H5V4.75C4.875 4.375 4.875 4.125 4.875 3.75C5 3.5 5 3.25 5.25 3.125C5.375 2.875 5.625 2.75 5.875 2.625C6 2.5 6.25 2.5 6.5 2.5C6.75 2.5 7 2.5 7.25 2.625C7.625 2.75 8 3 8.25 3.375C8.5 3.75 8.75 4.125 8.75 4.625V5ZM10 4.625C10 4.125 10.25 3.75 10.5 3.375C10.75 3 11.125 2.75 11.5 2.625C11.75 2.5 12 2.5 12.25 2.5C12.5 2.5 12.75 2.5 13 2.625C13.25 2.75 13.375 2.875 13.625 3.125C13.75 3.25 13.75 3.5 13.875 3.75C13.875 4.125 13.875 4.375 13.75 4.75C13.75 4.875 13.75 4.875 13.625 5H10V4.625ZM16.25 16.25H10V6.25H16.25V16.25Z" fill="#FCDD00"/>
</svg>
